<svg width="17.000000" height="17.000000" viewBox="0 0 17 17" fill="none" xmlns="http://www.w3.org/2000/svg" xmlns:xlink="http://www.w3.org/1999/xlink">
	<desc>
			Created with Pixso.
	</desc>
	<defs/>
	<path id="circle2017" d="M7.22 -0.4C3.1 -0.4 -0.25 2.97 -0.25 7.1C-0.25 11.24 3.1 14.61 7.22 14.61C8.97 14.61 10.59 13.99 11.87 12.96L14.98 16.08C15.14 16.24 15.35 16.32 15.57 16.32C15.78 16.31 15.99 16.23 16.14 16.07C16.3 15.92 16.39 15.71 16.39 15.49C16.39 15.27 16.31 15.06 16.16 14.9L13.05 11.78C14.07 10.5 14.69 8.87 14.69 7.1C14.69 2.97 11.33 -0.4 7.22 -0.4ZM7.22 1.27C10.43 1.27 13.03 3.87 13.03 7.1C13.03 10.33 10.43 12.94 7.22 12.94C4 12.94 1.41 10.33 1.41 7.1C1.41 3.87 4 1.27 7.22 1.27Z" fill="#443297" fill-opacity="1.000000" fill-rule="nonzero"/>
</svg>
