<svg width="24.000000" height="22.000000" viewBox="0 0 24 22" fill="none" xmlns="http://www.w3.org/2000/svg" xmlns:xlink="http://www.w3.org/1999/xlink">
	<desc>
			Created with Pixso.
	</desc>
	<defs>
		<clipPath id="clip7_3845">
			<rect id="heart 1" width="24.131544" height="22.000000" transform="translate(-0.510742 0.000000)" fill="white" fill-opacity="0"/>
		</clipPath>
	</defs>
	<rect id="heart 1" width="24.131544" height="22.000000" transform="translate(-0.510742 0.000000)" fill="#FFFFFF" fill-opacity="0"/>
	<g clip-path="url(#clip7_3845)">
		<path id="Vector" d="M15.52 3.55C18.37 3.55 20.68 5.68 20.68 8.67C20.68 14.65 13.65 18.06 11.31 19.35C8.97 18.06 1.94 14.65 1.94 8.67C1.94 5.68 4.29 3.55 7.1 3.55C8.84 3.55 10.37 4.4 11.31 5.26C12.25 4.4 13.78 3.55 15.52 3.55ZM12.18 16.87C13.01 16.4 13.75 15.93 14.45 15.42C17.24 13.4 18.8 11.19 18.8 8.67C18.8 6.66 17.36 5.26 15.52 5.26C14.52 5.26 13.43 5.74 12.63 6.46L11.31 7.67L9.99 6.46C9.19 5.74 8.1 5.26 7.1 5.26C5.28 5.26 3.82 6.67 3.82 8.67C3.82 11.19 5.38 13.4 8.17 15.42C8.87 15.93 9.61 16.4 10.43 16.87C10.72 17.03 10.99 17.19 11.31 17.36C11.63 17.19 11.9 17.03 12.18 16.87Z" fill="#FFFFFF" fill-opacity="1.000000" fill-rule="nonzero"/>
	</g>
</svg>
