<svg width="22.000000" height="20.000000" viewBox="0 0 22 20" fill="none" xmlns="http://www.w3.org/2000/svg" xmlns:xlink="http://www.w3.org/1999/xlink">
	<desc>
			Created with Pixso.
	</desc>
	<defs>
		<clipPath id="clip7_3840">
			<rect id="profile 1" width="21.363007" height="20.000000" transform="translate(-0.080078 0.000000)" fill="white" fill-opacity="0"/>
		</clipPath>
	</defs>
	<rect id="profile 1" width="21.363007" height="20.000000" transform="translate(-0.080078 0.000000)" fill="#FFFFFF" fill-opacity="0"/>
	<g clip-path="url(#clip7_3840)">
		<path id="Vector" d="M10.6 9.16C11.48 9.16 12.34 8.92 13.07 8.46C13.8 8 14.37 7.35 14.71 6.59C15.05 5.83 15.13 4.99 14.96 4.18C14.79 3.37 14.37 2.63 13.74 2.05C13.12 1.47 12.33 1.07 11.46 0.91C10.6 0.75 9.71 0.83 8.89 1.15C8.08 1.46 7.39 2 6.9 2.68C6.41 3.37 6.15 4.17 6.15 5C6.15 6.1 6.62 7.16 7.45 7.94C8.29 8.72 9.42 9.16 10.6 9.16ZM10.6 2.5C11.12 2.5 11.64 2.64 12.08 2.92C12.52 3.19 12.86 3.58 13.06 4.04C13.27 4.5 13.32 5 13.22 5.48C13.11 5.97 12.86 6.41 12.48 6.76C12.11 7.11 11.64 7.35 11.12 7.45C10.6 7.54 10.06 7.49 9.57 7.3C9.09 7.12 8.67 6.79 8.38 6.38C8.08 5.97 7.93 5.49 7.93 5C7.93 4.33 8.21 3.7 8.71 3.23C9.21 2.76 9.89 2.5 10.6 2.5ZM2.59 18.33L2.59 15C2.59 13.89 3.06 12.83 3.89 12.05C4.72 11.27 5.86 10.83 7.04 10.83L14.16 10.83C15.34 10.83 16.47 11.27 17.3 12.05C18.14 12.83 18.61 13.89 18.61 15L18.61 18.33C18.61 18.55 18.51 18.76 18.35 18.92C18.18 19.07 17.95 19.16 17.72 19.16C17.48 19.16 17.25 19.07 17.09 18.92C16.92 18.76 16.83 18.55 16.83 18.33L16.83 15C16.83 14.33 16.55 13.7 16.05 13.23C15.54 12.76 14.87 12.5 14.16 12.5L7.04 12.5C6.33 12.5 5.65 12.76 5.15 13.23C4.65 13.7 4.37 14.33 4.37 15L4.37 18.33C4.37 18.55 4.27 18.76 4.1 18.92C3.94 19.07 3.71 19.16 3.48 19.16C3.24 19.16 3.01 19.07 2.85 18.92C2.68 18.76 2.59 18.55 2.59 18.33Z" fill="#FFFFFF" fill-opacity="1.000000" fill-rule="nonzero"/>
	</g>
</svg>
