<svg width="22.000000" height="20.000000" viewBox="0 0 22 20" fill="none" xmlns="http://www.w3.org/2000/svg" xmlns:xlink="http://www.w3.org/1999/xlink">
	<desc>
			Created with Pixso.
	</desc>
	<defs>
		<clipPath id="clip7_3829">
			<rect id="shopping-cart 1" width="21.230600" height="20.000000" transform="translate(-0.152832 0.000000)" fill="white" fill-opacity="0"/>
		</clipPath>
	</defs>
	<rect id="shopping-cart 1" width="21.230600" height="20.000000" transform="translate(-0.152832 0.000000)" fill="#FFFFFF" fill-opacity="0"/>
	<g clip-path="url(#clip7_3829)">
		<path id="Vector" d="M15.77 17.5C15.77 16.57 16.56 15.83 17.53 15.83C18.51 15.83 19.3 16.57 19.3 17.5C19.3 18.41 18.51 19.16 17.53 19.16C16.56 19.16 15.77 18.41 15.77 17.5Z" fill="#FFFFFF" fill-opacity="1.000000" fill-rule="evenodd"/>
		<path id="Vector" d="M6.03 17.5C6.03 16.57 6.83 15.83 7.8 15.83C8.78 15.83 9.57 16.57 9.57 17.5C9.57 18.41 8.78 19.16 7.8 19.16C6.83 19.16 6.03 18.41 6.03 17.5Z" fill="#FFFFFF" fill-opacity="1.000000" fill-rule="evenodd"/>
		<path id="Vector" d="M-0.16 0.83C-0.16 0.37 0.24 0 0.73 0L4.27 0C4.69 0 5.05 0.28 5.13 0.66L5.88 4.16L20.19 4.16C20.45 4.16 20.7 4.27 20.87 4.46C21.04 4.66 21.11 4.91 21.06 5.15L19.64 12.15C19.52 12.72 19.19 13.24 18.7 13.61C18.22 13.98 17.62 14.17 17 14.16L8.41 14.16C7.79 14.17 7.19 13.98 6.71 13.61C6.22 13.24 5.89 12.72 5.77 12.15L4.29 5.19C4.28 5.17 4.28 5.15 4.28 5.12L3.54 1.66L0.73 1.66C0.24 1.66 -0.16 1.29 -0.16 0.83L-0.16 0.83ZM6.23 5.83L7.5 11.82C7.54 12.02 7.65 12.19 7.82 12.31C7.98 12.43 8.18 12.5 8.39 12.5L8.41 12.5L17 12.5L17.02 12.5C17.23 12.5 17.43 12.43 17.59 12.31C17.75 12.19 17.86 12.02 17.9 11.83L19.12 5.83L6.23 5.83Z" fill="#FFFFFF" fill-opacity="1.000000" fill-rule="evenodd"/>
	</g>
</svg>
