<svg width="11.000000" height="9.000000" viewBox="0 0 11 9" fill="none" xmlns="http://www.w3.org/2000/svg" xmlns:xlink="http://www.w3.org/1999/xlink">
	<desc>
			Created with Pixso.
	</desc>
	<defs/>
	<path id="Vector" d="M10.38 2.83C10.31 2.63 10.12 2.49 9.88 2.47L6.73 2.2L5.49 -0.47C5.39 -0.66 5.18 -0.79 4.95 -0.79C4.72 -0.79 4.51 -0.66 4.42 -0.47L3.17 2.2L0.02 2.47C-0.21 2.49 -0.41 2.63 -0.48 2.83C-0.55 3.03 -0.49 3.26 -0.31 3.4L2.07 5.31L1.37 8.14C1.32 8.35 1.41 8.57 1.59 8.69C1.7 8.76 1.82 8.79 1.93 8.79C2.04 8.79 2.14 8.77 2.23 8.72L4.95 7.23L7.67 8.72C7.87 8.83 8.12 8.82 8.31 8.69C8.5 8.57 8.58 8.35 8.53 8.14L7.83 5.31L10.21 3.4C10.39 3.26 10.46 3.03 10.38 2.83Z" fill="#F5C34B" fill-opacity="1.000000" fill-rule="nonzero"/>
</svg>
