<svg width="19.000000" height="16.000000" viewBox="0 0 19 16" fill="none" xmlns="http://www.w3.org/2000/svg" xmlns:xlink="http://www.w3.org/1999/xlink">
	<desc>
			Created with Pixso.
	</desc>
	<defs/>
	<path id="Vector" d="M13.52 -0.45C16.37 -0.45 18.68 1.68 18.68 4.67C18.68 10.65 11.65 14.06 9.31 15.35C6.97 14.06 -0.06 10.65 -0.06 4.67C-0.06 1.68 2.29 -0.45 5.1 -0.45C6.84 -0.45 8.37 0.4 9.31 1.26C10.25 0.4 11.78 -0.45 13.52 -0.45ZM10.18 12.87C11.01 12.4 11.75 11.93 12.45 11.42C15.24 9.4 16.8 7.19 16.8 4.67C16.8 2.66 15.36 1.26 13.52 1.26C12.52 1.26 11.43 1.74 10.63 2.46L9.31 3.67L7.99 2.46C7.19 1.74 6.1 1.26 5.1 1.26C3.28 1.26 1.82 2.67 1.82 4.67C1.82 7.19 3.38 9.4 6.17 11.42C6.87 11.93 7.61 12.4 8.43 12.87C8.72 13.03 8.99 13.19 9.31 13.36C9.63 13.19 9.9 13.03 10.18 12.87Z" fill="#FFFFFF" fill-opacity="1.000000" fill-rule="nonzero"/>
</svg>
