<svg width="16.000000" height="19.000000" viewBox="0 0 16 19" fill="none" xmlns="http://www.w3.org/2000/svg" xmlns:xlink="http://www.w3.org/1999/xlink">
	<desc>
			Created with Pixso.
	</desc>
	<defs/>
	<path id="Vector" d="M7.6 8.16C8.48 8.16 9.34 7.92 10.07 7.46C10.8 7 11.37 6.35 11.71 5.59C12.05 4.83 12.13 3.99 11.96 3.18C11.79 2.37 11.37 1.63 10.74 1.05C10.12 0.47 9.33 0.07 8.46 -0.09C7.6 -0.25 6.71 -0.17 5.89 0.15C5.08 0.46 4.39 1 3.9 1.68C3.41 2.37 3.15 3.17 3.15 4C3.15 5.1 3.62 6.16 4.45 6.94C5.29 7.72 6.42 8.16 7.6 8.16ZM7.6 1.5C8.12 1.5 8.64 1.64 9.08 1.92C9.52 2.19 9.86 2.58 10.06 3.04C10.27 3.5 10.32 4 10.22 4.48C10.11 4.97 9.86 5.41 9.48 5.76C9.11 6.11 8.64 6.35 8.12 6.45C7.6 6.54 7.06 6.49 6.57 6.3C6.09 6.12 5.67 5.79 5.38 5.38C5.08 4.97 4.93 4.49 4.93 4C4.93 3.33 5.21 2.7 5.71 2.23C6.21 1.76 6.89 1.5 7.6 1.5ZM-0.41 17.33L-0.41 14C-0.41 12.89 0.06 11.83 0.89 11.05C1.72 10.27 2.86 9.83 4.04 9.83L11.16 9.83C12.34 9.83 13.47 10.27 14.3 11.05C15.14 11.83 15.61 12.89 15.61 14L15.61 17.33C15.61 17.55 15.51 17.76 15.35 17.92C15.18 18.07 14.95 18.16 14.72 18.16C14.48 18.16 14.25 18.07 14.09 17.92C13.92 17.76 13.83 17.55 13.83 17.33L13.83 14C13.83 13.33 13.55 12.7 13.05 12.23C12.54 11.76 11.87 11.5 11.16 11.5L4.04 11.5C3.33 11.5 2.65 11.76 2.15 12.23C1.65 12.7 1.37 13.33 1.37 14L1.37 17.33C1.37 17.55 1.27 17.76 1.1 17.92C0.94 18.07 0.71 18.16 0.48 18.16C0.24 18.16 0.01 18.07 -0.15 17.92C-0.32 17.76 -0.41 17.55 -0.41 17.33Z" fill="#FFFFFF" fill-opacity="1.000000" fill-rule="nonzero"/>
</svg>
