<svg width="11.000000" height="5.000000" viewBox="0 0 11 5" fill="none" xmlns="http://www.w3.org/2000/svg" xmlns:xlink="http://www.w3.org/1999/xlink">
	<desc>
			Created with Pixso.
	</desc>
	<defs/>
	<path id="Vector" d="M5.29 4.86L10.16 1.07C10.27 0.98 10.33 0.87 10.33 0.74C10.33 0.62 10.27 0.5 10.16 0.41L9.8 0.13C9.56 -0.05 9.18 -0.05 8.95 0.13L4.86 3.32L0.77 0.13C0.65 0.04 0.5 0 0.34 0C0.18 0 0.03 0.04 -0.08 0.13L-0.44 0.41C-0.55 0.5 -0.61 0.61 -0.61 0.74C-0.61 0.86 -0.55 0.98 -0.44 1.07L4.44 4.86C4.55 4.95 4.7 5 4.86 5C5.02 5 5.17 4.95 5.29 4.86Z" fill="#041E42" fill-opacity="1.000000" fill-rule="nonzero"/>
</svg>
